<?xml version="1.0" encoding="us-ascii" standalone="no"?><svg xmlns="http://www.w3.org/2000/svg" xmlns:xlink="http://www.w3.org/1999/xlink" contentStyleType="text/css" height="762px" preserveAspectRatio="none" style="width:1003px;height:762px;background:#FFFFFF;" version="1.1" viewBox="0 0 1003 762" width="1003px" zoomAndPan="magnify"><defs/><g><rect fill="#FFFFFF" height="203.9297" style="stroke:#181818;stroke-width:1.0;" width="10" x="213.5" y="67.4297"/><rect fill="#FFFFFF" height="436.9922" style="stroke:#181818;stroke-width:1.0;" width="10" x="213.5" y="300.4922"/><rect fill="#FFFFFF" height="145.6641" style="stroke:#181818;stroke-width:1.0;" width="10" x="459.5" y="96.5625"/><rect fill="#FFFFFF" height="145.6641" style="stroke:#181818;stroke-width:1.0;" width="10" x="459.5" y="329.625"/><rect fill="#FFFFFF" height="203.9297" style="stroke:#181818;stroke-width:1.0;" width="10" x="459.5" y="504.4219"/><rect fill="#FFFFFF" height="87.3984" style="stroke:#181818;stroke-width:1.0;" width="10" x="669.5" y="125.6953"/><rect fill="#FFFFFF" height="87.3984" style="stroke:#181818;stroke-width:1.0;" width="10" x="669.5" y="358.7578"/><rect fill="#FFFFFF" height="87.3984" style="stroke:#181818;stroke-width:1.0;" width="10" x="669.5" y="562.6875"/><rect fill="#FFFFFF" height="29.1328" style="stroke:#181818;stroke-width:1.0;" width="10" x="870.5" y="154.8281"/><rect fill="#FFFFFF" height="29.1328" style="stroke:#181818;stroke-width:1.0;" width="10" x="870.5" y="387.8906"/><rect fill="#FFFFFF" height="29.1328" style="stroke:#181818;stroke-width:1.0;" width="10" x="870.5" y="591.8203"/><rect fill="#FFFFFF" height="145.6641" style="stroke:#181818;stroke-width:1.0;" width="10" x="950.5" y="533.5547"/><line style="stroke:#181818;stroke-width:0.5;stroke-dasharray:5.0,5.0;" x1="27" x2="27" y1="36.2969" y2="755.4844"/><line style="stroke:#181818;stroke-width:0.5;stroke-dasharray:5.0,5.0;" x1="218.5" x2="218.5" y1="36.2969" y2="755.4844"/><line style="stroke:#181818;stroke-width:0.5;stroke-dasharray:5.0,5.0;" x1="464" x2="464" y1="36.2969" y2="755.4844"/><line style="stroke:#181818;stroke-width:0.5;stroke-dasharray:5.0,5.0;" x1="674" x2="674" y1="36.2969" y2="755.4844"/><line style="stroke:#181818;stroke-width:0.5;stroke-dasharray:5.0,5.0;" x1="875" x2="875" y1="36.2969" y2="755.4844"/><line style="stroke:#181818;stroke-width:0.5;stroke-dasharray:5.0,5.0;" x1="955" x2="955" y1="36.2969" y2="755.4844"/><rect fill="#E2E2F0" height="30.2969" rx="2.5" ry="2.5" style="stroke:#181818;stroke-width:0.5;" width="45" x="5" y="5"/><text fill="#000000" font-family="sans-serif" font-size="14" lengthAdjust="spacing" textLength="31" x="12" y="24.9951">User</text><rect fill="#E2E2F0" height="30.2969" rx="2.5" ry="2.5" style="stroke:#181818;stroke-width:0.5;" width="48" x="194.5" y="5"/><text fill="#000000" font-family="sans-serif" font-size="14" lengthAdjust="spacing" textLength="34" x="201.5" y="24.9951">View</text><rect fill="#E2E2F0" height="30.2969" rx="2.5" ry="2.5" style="stroke:#181818;stroke-width:0.5;" width="47" x="441" y="5"/><text fill="#000000" font-family="sans-serif" font-size="14" lengthAdjust="spacing" textLength="33" x="448" y="24.9951">Host</text><rect fill="#E2E2F0" height="30.2969" rx="2.5" ry="2.5" style="stroke:#181818;stroke-width:0.5;" width="87" x="631" y="5"/><text fill="#000000" font-family="sans-serif" font-size="14" lengthAdjust="spacing" textLength="73" x="638" y="24.9951">Controller</text><rect fill="#E2E2F0" height="30.2969" rx="2.5" ry="2.5" style="stroke:#181818;stroke-width:0.5;" width="57" x="847" y="5"/><text fill="#000000" font-family="sans-serif" font-size="14" lengthAdjust="spacing" textLength="43" x="854" y="24.9951">Model</text><rect fill="#E2E2F0" height="30.2969" rx="2.5" ry="2.5" style="stroke:#181818;stroke-width:0.5;" width="83" x="914" y="5"/><text fill="#000000" font-family="sans-serif" font-size="14" lengthAdjust="spacing" textLength="69" x="921" y="24.9951">Simulator</text><rect fill="#FFFFFF" height="203.9297" style="stroke:#181818;stroke-width:1.0;" width="10" x="213.5" y="67.4297"/><rect fill="#FFFFFF" height="436.9922" style="stroke:#181818;stroke-width:1.0;" width="10" x="213.5" y="300.4922"/><rect fill="#FFFFFF" height="145.6641" style="stroke:#181818;stroke-width:1.0;" width="10" x="459.5" y="96.5625"/><rect fill="#FFFFFF" height="145.6641" style="stroke:#181818;stroke-width:1.0;" width="10" x="459.5" y="329.625"/><rect fill="#FFFFFF" height="203.9297" style="stroke:#181818;stroke-width:1.0;" width="10" x="459.5" y="504.4219"/><rect fill="#FFFFFF" height="87.3984" style="stroke:#181818;stroke-width:1.0;" width="10" x="669.5" y="125.6953"/><rect fill="#FFFFFF" height="87.3984" style="stroke:#181818;stroke-width:1.0;" width="10" x="669.5" y="358.7578"/><rect fill="#FFFFFF" height="87.3984" style="stroke:#181818;stroke-width:1.0;" width="10" x="669.5" y="562.6875"/><rect fill="#FFFFFF" height="29.1328" style="stroke:#181818;stroke-width:1.0;" width="10" x="870.5" y="154.8281"/><rect fill="#FFFFFF" height="29.1328" style="stroke:#181818;stroke-width:1.0;" width="10" x="870.5" y="387.8906"/><rect fill="#FFFFFF" height="29.1328" style="stroke:#181818;stroke-width:1.0;" width="10" x="870.5" y="591.8203"/><rect fill="#FFFFFF" height="145.6641" style="stroke:#181818;stroke-width:1.0;" width="10" x="950.5" y="533.5547"/><polygon fill="#181818" points="201.5,63.4297,211.5,67.4297,201.5,71.4297" style="stroke:#181818;stroke-width:1.0;"/><line style="stroke:#181818;stroke-width:1.0;" x1="27.5" x2="207.5" y1="67.4297" y2="67.4297"/><text fill="#000000" font-family="sans-serif" font-size="13" lengthAdjust="spacing" textLength="126" x="57.5" y="62.3638">input game params</text><polygon fill="#181818" points="447.5,92.5625,457.5,96.5625,447.5,100.5625" style="stroke:#181818;stroke-width:1.0;"/><line style="stroke:#181818;stroke-width:1.0;" x1="223.5" x2="453.5" y1="96.5625" y2="96.5625"/><text fill="#000000" font-family="sans-serif" font-size="13" lengthAdjust="spacing" textLength="217" x="233" y="91.4966">{POST} /monte_carlo/game_data</text><polygon fill="#181818" points="657.5,121.6953,667.5,125.6953,657.5,129.6953" style="stroke:#181818;stroke-width:1.0;"/><line style="stroke:#181818;stroke-width:1.0;" x1="469.5" x2="663.5" y1="125.6953" y2="125.6953"/><text fill="#000000" font-family="sans-serif" font-size="13" lengthAdjust="spacing" textLength="95" x="522" y="120.6294">get game data</text><polygon fill="#181818" points="858.5,150.8281,868.5,154.8281,858.5,158.8281" style="stroke:#181818;stroke-width:1.0;"/><line style="stroke:#181818;stroke-width:1.0;" x1="679.5" x2="864.5" y1="154.8281" y2="154.8281"/><text fill="#000000" font-family="sans-serif" font-size="13" lengthAdjust="spacing" textLength="165" x="692.5" y="149.7622">read schedule for params</text><polygon fill="#181818" points="690.5,179.9609,680.5,183.9609,690.5,187.9609" style="stroke:#181818;stroke-width:1.0;"/><line style="stroke:#181818;stroke-width:1.0;stroke-dasharray:2.0,2.0;" x1="684.5" x2="874.5" y1="183.9609" y2="183.9609"/><text fill="#000000" font-family="sans-serif" font-size="13" lengthAdjust="spacing" textLength="152" x="701.5" y="178.895">return schedule records</text><polygon fill="#181818" points="480.5,209.0938,470.5,213.0938,480.5,217.0938" style="stroke:#181818;stroke-width:1.0;"/><line style="stroke:#181818;stroke-width:1.0;stroke-dasharray:2.0,2.0;" x1="474.5" x2="673.5" y1="213.0938" y2="213.0938"/><text fill="#000000" font-family="sans-serif" font-size="13" lengthAdjust="spacing" textLength="176" x="484" y="208.0278">return schedule DataFrame</text><polygon fill="#181818" points="234.5,238.2266,224.5,242.2266,234.5,246.2266" style="stroke:#181818;stroke-width:1.0;"/><line style="stroke:#181818;stroke-width:1.0;stroke-dasharray:2.0,2.0;" x1="228.5" x2="463.5" y1="242.2266" y2="242.2266"/><text fill="#000000" font-family="sans-serif" font-size="13" lengthAdjust="spacing" textLength="170" x="259" y="237.1606">response {schedule, 200}</text><polygon fill="#181818" points="38.5,267.3594,28.5,271.3594,38.5,275.3594" style="stroke:#181818;stroke-width:1.0;"/><line style="stroke:#181818;stroke-width:1.0;stroke-dasharray:2.0,2.0;" x1="32.5" x2="217.5" y1="271.3594" y2="271.3594"/><text fill="#000000" font-family="sans-serif" font-size="13" lengthAdjust="spacing" textLength="106" x="70" y="266.2935">display schedule</text><polygon fill="#181818" points="201.5,296.4922,211.5,300.4922,201.5,304.4922" style="stroke:#181818;stroke-width:1.0;"/><line style="stroke:#181818;stroke-width:1.0;" x1="27.5" x2="207.5" y1="300.4922" y2="300.4922"/><text fill="#000000" font-family="sans-serif" font-size="13" lengthAdjust="spacing" textLength="116" x="62.5" y="295.4263">simulate selection</text><polygon fill="#181818" points="447.5,325.625,457.5,329.625,447.5,333.625" style="stroke:#181818;stroke-width:1.0;"/><line style="stroke:#181818;stroke-width:1.0;" x1="223.5" x2="453.5" y1="329.625" y2="329.625"/><text fill="#000000" font-family="sans-serif" font-size="13" lengthAdjust="spacing" textLength="211" x="236" y="324.5591">{GET} /monte_carlo/team_in_db</text><polygon fill="#181818" points="657.5,354.7578,667.5,358.7578,657.5,362.7578" style="stroke:#181818;stroke-width:1.0;"/><line style="stroke:#181818;stroke-width:1.0;" x1="469.5" x2="663.5" y1="358.7578" y2="358.7578"/><text fill="#000000" font-family="sans-serif" font-size="13" lengthAdjust="spacing" textLength="176" x="481.5" y="353.6919">check teams/seasons in DB</text><polygon fill="#181818" points="858.5,383.8906,868.5,387.8906,858.5,391.8906" style="stroke:#181818;stroke-width:1.0;"/><line style="stroke:#181818;stroke-width:1.0;" x1="679.5" x2="864.5" y1="387.8906" y2="387.8906"/><text fill="#000000" font-family="sans-serif" font-size="13" lengthAdjust="spacing" textLength="172" x="689" y="382.8247">regular season data in DB?</text><polygon fill="#181818" points="690.5,413.0234,680.5,417.0234,690.5,421.0234" style="stroke:#181818;stroke-width:1.0;"/><line style="stroke:#181818;stroke-width:1.0;stroke-dasharray:2.0,2.0;" x1="684.5" x2="874.5" y1="417.0234" y2="417.0234"/><text fill="#000000" font-family="sans-serif" font-size="13" lengthAdjust="spacing" textLength="109" x="723" y="411.9575">return True/False</text><polygon fill="#181818" points="480.5,442.1563,470.5,446.1563,480.5,450.1563" style="stroke:#181818;stroke-width:1.0;"/><line style="stroke:#181818;stroke-width:1.0;stroke-dasharray:2.0,2.0;" x1="474.5" x2="673.5" y1="446.1563" y2="446.1563"/><text fill="#000000" font-family="sans-serif" font-size="13" lengthAdjust="spacing" textLength="109" x="517.5" y="441.0903">return True/False</text><polygon fill="#181818" points="234.5,471.2891,224.5,475.2891,234.5,479.2891" style="stroke:#181818;stroke-width:1.0;"/><line style="stroke:#181818;stroke-width:1.0;stroke-dasharray:2.0,2.0;" x1="228.5" x2="463.5" y1="475.2891" y2="475.2891"/><text fill="#000000" font-family="sans-serif" font-size="13" lengthAdjust="spacing" textLength="105" x="291.5" y="470.2231">response {200}</text><polygon fill="#181818" points="447.5,500.4219,457.5,504.4219,447.5,508.4219" style="stroke:#181818;stroke-width:1.0;"/><line style="stroke:#181818;stroke-width:1.0;" x1="223.5" x2="453.5" y1="504.4219" y2="504.4219"/><text fill="#000000" font-family="sans-serif" font-size="13" lengthAdjust="spacing" textLength="202" x="240.5" y="499.356">{GET} /monte_carlo/simulation</text><polygon fill="#181818" points="938.5,529.5547,948.5,533.5547,938.5,537.5547" style="stroke:#181818;stroke-width:1.0;"/><line style="stroke:#181818;stroke-width:1.0;" x1="469.5" x2="944.5" y1="533.5547" y2="533.5547"/><text fill="#000000" font-family="sans-serif" font-size="13" lengthAdjust="spacing" textLength="171" x="624.5" y="528.4888">run Monte Carlo simulation</text><polygon fill="#181818" points="690.5,558.6875,680.5,562.6875,690.5,566.6875" style="stroke:#181818;stroke-width:1.0;"/><line style="stroke:#181818;stroke-width:1.0;" x1="684.5" x2="949.5" y1="562.6875" y2="562.6875"/><text fill="#000000" font-family="sans-serif" font-size="13" lengthAdjust="spacing" textLength="186" x="722" y="557.6216">assemble teams and players</text><polygon fill="#181818" points="858.5,587.8203,868.5,591.8203,858.5,595.8203" style="stroke:#181818;stroke-width:1.0;"/><line style="stroke:#181818;stroke-width:1.0;" x1="679.5" x2="864.5" y1="591.8203" y2="591.8203"/><text fill="#000000" font-family="sans-serif" font-size="13" lengthAdjust="spacing" textLength="101" x="724.5" y="586.7544">read stat tables</text><polygon fill="#181818" points="690.5,616.9531,680.5,620.9531,690.5,624.9531" style="stroke:#181818;stroke-width:1.0;"/><line style="stroke:#181818;stroke-width:1.0;stroke-dasharray:2.0,2.0;" x1="684.5" x2="874.5" y1="620.9531" y2="620.9531"/><text fill="#000000" font-family="sans-serif" font-size="13" lengthAdjust="spacing" textLength="111" x="722" y="615.8872">return stat tables</text><polygon fill="#181818" points="938.5,646.0859,948.5,650.0859,938.5,654.0859" style="stroke:#181818;stroke-width:1.0;"/><line style="stroke:#181818;stroke-width:1.0;stroke-dasharray:2.0,2.0;" x1="674.5" x2="944.5" y1="650.0859" y2="650.0859"/><text fill="#000000" font-family="sans-serif" font-size="13" lengthAdjust="spacing" textLength="171" x="727" y="645.02">team and player instances</text><polygon fill="#181818" points="480.5,675.2188,470.5,679.2188,480.5,683.2188" style="stroke:#181818;stroke-width:1.0;"/><line style="stroke:#181818;stroke-width:1.0;stroke-dasharray:2.0,2.0;" x1="474.5" x2="954.5" y1="679.2188" y2="679.2188"/><text fill="#000000" font-family="sans-serif" font-size="13" lengthAdjust="spacing" textLength="265" x="580" y="674.1528">returns str List[graphs(Base64) and data]</text><polygon fill="#181818" points="234.5,704.3516,224.5,708.3516,234.5,712.3516" style="stroke:#181818;stroke-width:1.0;"/><line style="stroke:#181818;stroke-width:1.0;stroke-dasharray:2.0,2.0;" x1="228.5" x2="463.5" y1="708.3516" y2="708.3516"/><text fill="#000000" font-family="sans-serif" font-size="13" lengthAdjust="spacing" textLength="152" x="268" y="703.2856">response{results, 200}</text><polygon fill="#181818" points="38.5,733.4844,28.5,737.4844,38.5,741.4844" style="stroke:#181818;stroke-width:1.0;"/><line style="stroke:#181818;stroke-width:1.0;stroke-dasharray:2.0,2.0;" x1="32.5" x2="217.5" y1="737.4844" y2="737.4844"/><text fill="#000000" font-family="sans-serif" font-size="13" lengthAdjust="spacing" textLength="162" x="42" y="732.4185">display simulation results</text><!--SRC=[bLHHRzD037xFh_1RXyJK2I4U-W1Y6uC79f0wU9bGvIOcFNgv2-UxeQxQVyUNfDabT6LzkKjYV_PdVtOcXg2mory8QmMeWmO4laTdr-Wd6Q-LgT5X1NE_qGJidSfzg7GsMTjxgic8kzaeFN2btu5CJjV4Z2Mzrweq5HaFkHpaiapSlCfLZVBj6vC3P0Xo3mpV5Vs9XZkv1uPFbdqqhEGU62wiySvgtGRCsxU1nxKjI4TZ5Hy6fhcgWaPl6oplNh8iyeBJjmsD6KY9mKE95K5JAsSPvbxTeQUMQ3oYUoGtW-tNB_ER1vXMmeKMEJfjfn6yAD1Z0crAYKU4TiHdK5ANQkIzgwox8wQfPmQEi03ELrG44Ukd5FCFoxRoveJJD9iZ7vnvH3lAhIiuAsY4VSpRrpd6NWhXAqbCANf7kokqxwaZhgrXWkqE_n9UdPqzfDYcGLrp1HX5cK6XkDQuwTEcW4QCaNYTgZB5f4aShJaitiSFO-qyORLGPb4i_okUSChN404yPKAM2cLwuFBycKAMGjL1Ysm6e4M_EqBA6nTeUeMQwHWHzwDwyPvMxv1c1thQgJ9GeuNkUjflesGBHfPOm70HmR0Fd2nl_pYG1fcfMigODke0cWBY797Z8vRCemUF4kMevKfGXoL9Qeui4v8o1n96Vg-yLv-av96o7F_Uy5cnloqTrYi-EKUcDwzVDC7ZYFr88oPjV4BohJm4xVdOTUqrWox0U77_0W00]--></g></svg>