<?xml version="1.0" encoding="us-ascii" standalone="no"?><svg xmlns="http://www.w3.org/2000/svg" xmlns:xlink="http://www.w3.org/1999/xlink" contentStyleType="text/css" height="558px" preserveAspectRatio="none" style="width:580px;height:558px;background:#FFFFFF;" version="1.1" viewBox="0 0 580 558" width="580px" zoomAndPan="magnify"><defs/><g><rect fill="#FFFFFF" height="29.1328" style="stroke:#181818;stroke-width:1.0;" width="10" x="29.5" y="96.5625"/><rect fill="#FFFFFF" height="29.1328" style="stroke:#181818;stroke-width:1.0;" width="10" x="29.5" y="213.0938"/><rect fill="#FFFFFF" height="29.1328" style="stroke:#181818;stroke-width:1.0;" width="10" x="29.5" y="271.3594"/><rect fill="#FFFFFF" height="58.2656" style="stroke:#181818;stroke-width:1.0;" width="10" x="29.5" y="446.1563"/><rect fill="#FFFFFF" height="9" style="stroke:#181818;stroke-width:1.0;" width="10" x="29.5" y="533.5547"/><rect fill="#FFFFFF" height="29.1328" style="stroke:#181818;stroke-width:1.0;" width="10" x="226.5" y="67.4297"/><rect fill="#FFFFFF" height="29.1328" style="stroke:#181818;stroke-width:1.0;" width="10" x="226.5" y="125.6953"/><rect fill="#FFFFFF" height="29.1328" style="stroke:#181818;stroke-width:1.0;" width="10" x="226.5" y="183.9609"/><rect fill="#FFFFFF" height="29.1328" style="stroke:#181818;stroke-width:1.0;" width="10" x="226.5" y="242.2266"/><rect fill="#FFFFFF" height="29.1328" style="stroke:#181818;stroke-width:1.0;" width="10" x="226.5" y="300.4922"/><rect fill="#FFFFFF" height="58.2656" style="stroke:#181818;stroke-width:1.0;" width="10" x="226.5" y="417.0234"/><rect fill="#FFFFFF" height="29.1328" style="stroke:#181818;stroke-width:1.0;" width="10" x="226.5" y="504.4219"/><rect fill="#FFFFFF" height="29.1328" style="stroke:#181818;stroke-width:1.0;" width="10" x="406.5" y="154.8281"/><rect fill="#FFFFFF" height="29.1328" style="stroke:#181818;stroke-width:1.0;" width="10" x="406.5" y="329.625"/><rect fill="#FFFFFF" height="29.1328" style="stroke:#181818;stroke-width:1.0;" width="10" x="406.5" y="387.8906"/><rect fill="#FFFFFF" height="29.1328" style="stroke:#181818;stroke-width:1.0;" width="10" x="544.5" y="358.7578"/><line style="stroke:#181818;stroke-width:0.5;stroke-dasharray:5.0,5.0;" x1="34" x2="34" y1="36.2969" y2="551.5547"/><line style="stroke:#181818;stroke-width:0.5;stroke-dasharray:5.0,5.0;" x1="231" x2="231" y1="36.2969" y2="551.5547"/><line style="stroke:#181818;stroke-width:0.5;stroke-dasharray:5.0,5.0;" x1="411.5" x2="411.5" y1="36.2969" y2="551.5547"/><line style="stroke:#181818;stroke-width:0.5;stroke-dasharray:5.0,5.0;" x1="549.5" x2="549.5" y1="36.2969" y2="551.5547"/><rect fill="#E2E2F0" height="30.2969" rx="2.5" ry="2.5" style="stroke:#181818;stroke-width:0.5;" width="59" x="5" y="5"/><text fill="#000000" font-family="sans-serif" font-size="14" lengthAdjust="spacing" textLength="45" x="12" y="24.9951">Ugyfel</text><rect fill="#E2E2F0" height="30.2969" rx="2.5" ry="2.5" style="stroke:#181818;stroke-width:0.5;" width="45" x="209" y="5"/><text fill="#000000" font-family="sans-serif" font-size="14" lengthAdjust="spacing" textLength="31" x="216" y="24.9951">ATM</text><rect fill="#E2E2F0" height="30.2969" rx="2.5" ry="2.5" style="stroke:#181818;stroke-width:0.5;" width="44" x="389.5" y="5"/><text fill="#000000" font-family="sans-serif" font-size="14" lengthAdjust="spacing" textLength="30" x="396.5" y="24.9951">Fiok</text><rect fill="#E2E2F0" height="30.2969" rx="2.5" ry="2.5" style="stroke:#181818;stroke-width:0.5;" width="50" x="524.5" y="5"/><text fill="#000000" font-family="sans-serif" font-size="14" lengthAdjust="spacing" textLength="36" x="531.5" y="24.9951">Bank</text><rect fill="#FFFFFF" height="29.1328" style="stroke:#181818;stroke-width:1.0;" width="10" x="29.5" y="96.5625"/><rect fill="#FFFFFF" height="29.1328" style="stroke:#181818;stroke-width:1.0;" width="10" x="29.5" y="213.0938"/><rect fill="#FFFFFF" height="29.1328" style="stroke:#181818;stroke-width:1.0;" width="10" x="29.5" y="271.3594"/><rect fill="#FFFFFF" height="58.2656" style="stroke:#181818;stroke-width:1.0;" width="10" x="29.5" y="446.1563"/><rect fill="#FFFFFF" height="9" style="stroke:#181818;stroke-width:1.0;" width="10" x="29.5" y="533.5547"/><rect fill="#FFFFFF" height="29.1328" style="stroke:#181818;stroke-width:1.0;" width="10" x="226.5" y="67.4297"/><rect fill="#FFFFFF" height="29.1328" style="stroke:#181818;stroke-width:1.0;" width="10" x="226.5" y="125.6953"/><rect fill="#FFFFFF" height="29.1328" style="stroke:#181818;stroke-width:1.0;" width="10" x="226.5" y="183.9609"/><rect fill="#FFFFFF" height="29.1328" style="stroke:#181818;stroke-width:1.0;" width="10" x="226.5" y="242.2266"/><rect fill="#FFFFFF" height="29.1328" style="stroke:#181818;stroke-width:1.0;" width="10" x="226.5" y="300.4922"/><rect fill="#FFFFFF" height="58.2656" style="stroke:#181818;stroke-width:1.0;" width="10" x="226.5" y="417.0234"/><rect fill="#FFFFFF" height="29.1328" style="stroke:#181818;stroke-width:1.0;" width="10" x="226.5" y="504.4219"/><rect fill="#FFFFFF" height="29.1328" style="stroke:#181818;stroke-width:1.0;" width="10" x="406.5" y="154.8281"/><rect fill="#FFFFFF" height="29.1328" style="stroke:#181818;stroke-width:1.0;" width="10" x="406.5" y="329.625"/><rect fill="#FFFFFF" height="29.1328" style="stroke:#181818;stroke-width:1.0;" width="10" x="406.5" y="387.8906"/><rect fill="#FFFFFF" height="29.1328" style="stroke:#181818;stroke-width:1.0;" width="10" x="544.5" y="358.7578"/><polygon fill="#181818" points="214.5,63.4297,224.5,67.4297,214.5,71.4297" style="stroke:#181818;stroke-width:1.0;"/><line style="stroke:#181818;stroke-width:1.0;" x1="34.5" x2="220.5" y1="67.4297" y2="67.4297"/><text fill="#000000" font-family="sans-serif" font-size="13" lengthAdjust="spacing" textLength="157" x="52" y="62.3638">Bankkartya behelyezese</text><polygon fill="#181818" points="50.5,92.5625,40.5,96.5625,50.5,100.5625" style="stroke:#181818;stroke-width:1.0;"/><line style="stroke:#181818;stroke-width:1.0;" x1="44.5" x2="230.5" y1="96.5625" y2="96.5625"/><text fill="#000000" font-family="sans-serif" font-size="13" lengthAdjust="spacing" textLength="83" x="94" y="91.4966">PIN bekerese</text><polygon fill="#181818" points="214.5,121.6953,224.5,125.6953,214.5,129.6953" style="stroke:#181818;stroke-width:1.0;"/><line style="stroke:#181818;stroke-width:1.0;" x1="34.5" x2="220.5" y1="125.6953" y2="125.6953"/><text fill="#000000" font-family="sans-serif" font-size="13" lengthAdjust="spacing" textLength="75" x="93" y="120.6294">PIN bevitele</text><polygon fill="#181818" points="394.5,150.8281,404.5,154.8281,394.5,158.8281" style="stroke:#181818;stroke-width:1.0;"/><line style="stroke:#181818;stroke-width:1.0;" x1="231.5" x2="400.5" y1="154.8281" y2="154.8281"/><text fill="#000000" font-family="sans-serif" font-size="13" lengthAdjust="spacing" textLength="88" x="275" y="149.7622">PIN validalasa</text><polygon fill="#181818" points="247.5,179.9609,237.5,183.9609,247.5,187.9609" style="stroke:#181818;stroke-width:1.0;"/><line style="stroke:#181818;stroke-width:1.0;stroke-dasharray:2.0,2.0;" x1="241.5" x2="410.5" y1="183.9609" y2="183.9609"/><text fill="#000000" font-family="sans-serif" font-size="13" lengthAdjust="spacing" textLength="88" x="280" y="178.895">PIN elfogadva</text><polygon fill="#181818" points="50.5,209.0938,40.5,213.0938,50.5,217.0938" style="stroke:#181818;stroke-width:1.0;"/><line style="stroke:#181818;stroke-width:1.0;" x1="44.5" x2="230.5" y1="213.0938" y2="213.0938"/><text fill="#000000" font-family="sans-serif" font-size="13" lengthAdjust="spacing" textLength="97" x="87" y="208.0278">Muvelet kerese</text><polygon fill="#181818" points="214.5,238.2266,224.5,242.2266,214.5,246.2266" style="stroke:#181818;stroke-width:1.0;"/><line style="stroke:#181818;stroke-width:1.0;" x1="34.5" x2="220.5" y1="242.2266" y2="242.2266"/><text fill="#000000" font-family="sans-serif" font-size="13" lengthAdjust="spacing" textLength="133" x="64" y="237.1606">Muvelet kivalasztasa</text><polygon fill="#181818" points="50.5,267.3594,40.5,271.3594,50.5,275.3594" style="stroke:#181818;stroke-width:1.0;"/><line style="stroke:#181818;stroke-width:1.0;" x1="44.5" x2="230.5" y1="271.3594" y2="271.3594"/><text fill="#000000" font-family="sans-serif" font-size="13" lengthAdjust="spacing" textLength="115" x="78" y="266.2935">Mennyiseg kerese</text><polygon fill="#181818" points="214.5,296.4922,224.5,300.4922,214.5,304.4922" style="stroke:#181818;stroke-width:1.0;"/><line style="stroke:#181818;stroke-width:1.0;" x1="34.5" x2="220.5" y1="300.4922" y2="300.4922"/><text fill="#000000" font-family="sans-serif" font-size="13" lengthAdjust="spacing" textLength="126" x="67.5" y="295.4263">mennyiseg bevitele</text><polygon fill="#181818" points="394.5,325.625,404.5,329.625,394.5,333.625" style="stroke:#181818;stroke-width:1.0;"/><line style="stroke:#181818;stroke-width:1.0;" x1="231.5" x2="400.5" y1="329.625" y2="329.625"/><text fill="#000000" font-family="sans-serif" font-size="13" lengthAdjust="spacing" textLength="151" x="243.5" y="324.5591">tranzakcio feldolgozasa</text><polygon fill="#181818" points="532.5,354.7578,542.5,358.7578,532.5,362.7578" style="stroke:#181818;stroke-width:1.0;"/><line style="stroke:#181818;stroke-width:1.0;" x1="411.5" x2="538.5" y1="358.7578" y2="358.7578"/><text fill="#000000" font-family="sans-serif" font-size="13" lengthAdjust="spacing" textLength="109" x="423.5" y="353.6919">Osszeg levonasa</text><polygon fill="#181818" points="427.5,383.8906,417.5,387.8906,427.5,391.8906" style="stroke:#181818;stroke-width:1.0;"/><line style="stroke:#181818;stroke-width:1.0;stroke-dasharray:2.0,2.0;" x1="421.5" x2="548.5" y1="387.8906" y2="387.8906"/><text fill="#000000" font-family="sans-serif" font-size="13" lengthAdjust="spacing" textLength="99" x="433.5" y="382.8247">sikeres levonas</text><polygon fill="#181818" points="247.5,413.0234,237.5,417.0234,247.5,421.0234" style="stroke:#181818;stroke-width:1.0;"/><line style="stroke:#181818;stroke-width:1.0;" x1="241.5" x2="410.5" y1="417.0234" y2="417.0234"/><text fill="#000000" font-family="sans-serif" font-size="13" lengthAdjust="spacing" textLength="115" x="266.5" y="411.9575">sikeres tranzakcio</text><polygon fill="#181818" points="50.5,442.1563,40.5,446.1563,50.5,450.1563" style="stroke:#181818;stroke-width:1.0;"/><line style="stroke:#181818;stroke-width:1.0;" x1="44.5" x2="225.5" y1="446.1563" y2="446.1563"/><text fill="#000000" font-family="sans-serif" font-size="13" lengthAdjust="spacing" textLength="113" x="76.5" y="441.0903">keszpenz kiadasa</text><polygon fill="#181818" points="50.5,471.2891,40.5,475.2891,50.5,479.2891" style="stroke:#181818;stroke-width:1.0;"/><line style="stroke:#181818;stroke-width:1.0;" x1="44.5" x2="230.5" y1="475.2891" y2="475.2891"/><text fill="#000000" font-family="sans-serif" font-size="13" lengthAdjust="spacing" textLength="125" x="73" y="470.2231">penz elvetel kerese</text><polygon fill="#008000" points="214.5,500.4219,224.5,504.4219,214.5,508.4219" style="stroke:#008000;stroke-width:1.0;"/><line style="stroke:#008000;stroke-width:1.0;" x1="34.5" x2="220.5" y1="504.4219" y2="504.4219"/><text fill="#008000" font-family="sans-serif" font-size="13" lengthAdjust="spacing" textLength="164" x="50.5" y="499.356">keszpenz elvetele sikeres</text><polygon fill="#008000" points="50.5,529.5547,40.5,533.5547,50.5,537.5547" style="stroke:#008000;stroke-width:1.0;"/><line style="stroke:#008000;stroke-width:1.0;stroke-dasharray:2.0,2.0;" x1="44.5" x2="230.5" y1="533.5547" y2="533.5547"/><text fill="#000000" font-family="sans-serif" font-size="13" lengthAdjust="spacing" textLength="150" x="60.5" y="528.4888">bizonylat kinyomtatasa</text><!--SRC=[fLHDRzim3BthLn3O8QV-WM0hq1uAx91jmBRJi0CZCvucMSease3rwqih_gXRjnsGImA8xptoyH7UUO8g7FyYM0FeMWS8AMCC5dcdaZN-Z14R-Cwz8qWSZUQsSMfdGwOpUO7xthWLbFwrv3KTA2MiwSwPsZVa6RJyK5HAO6oqEQEy_Qpx4qdJ1BfD71gfFotV_JWCDUHczVnWWYtlMeVMywfsZxxKZlAlb9fauUPsa85z0LWXz0X7-aEkfqo956es7JALPWDI23Dv3zy-Vn6ufJXWArgX5-viucNRYq1dcDnAOAQepH56YwD0XyvKw33XwpDCIud4RVI5HkuKQgowDMl4gVUi7zfEPcQumlmi8KYPFlCp1yiItfk5lDnRelgQQPfPvAf0EABFQBK983TS1LU7_5_9J1AYDbpf7hwcb6KQHrtmpnMcbEQNSjXZkCcKDKpCfyJB_R_L-xACIM9nytRxxLmifIoVWom9OpLOs0ZY9Qimo7Ka6RmMw1BVhmzr9FA_o-Hx-7WAmqSbk10_bSBjCiMeIPExhNnXRGgcdHvD3hvtE5ohxqF3oDk67W40]--></g></svg>