<?xml version="1.0" encoding="us-ascii" standalone="no"?><svg xmlns="http://www.w3.org/2000/svg" xmlns:xlink="http://www.w3.org/1999/xlink" contentStyleType="text/css" height="1033.3333px" preserveAspectRatio="none" style="width:1176px;height:1033px;" version="1.1" viewBox="0 0 1176 1033" width="1176.0417px" zoomAndPan="magnify"><defs><linearGradient id="g19i7t29zqfi160" x1="50%" x2="50%" y1="0%" y2="100%"><stop offset="0%" stop-color="#59B6EC"/><stop offset="100%" stop-color="#2FA4E7"/></linearGradient></defs><g><rect fill="#EDF0F2" height="276.8555" style="stroke:#BABDBF;stroke-width:1.0416666666666667;" width="10.4167" x="278.6458" y="92.6432"/><rect fill="#EDF0F2" height="593.2617" style="stroke:#BABDBF;stroke-width:1.0416666666666667;" width="10.4167" x="278.6458" y="409.0495"/><rect fill="#EDF0F2" height="197.7539" style="stroke:#BABDBF;stroke-width:1.0416666666666667;" width="10.4167" x="524.4792" y="132.194"/><rect fill="#EDF0F2" height="197.7539" style="stroke:#BABDBF;stroke-width:1.0416666666666667;" width="10.4167" x="524.4792" y="448.6003"/><rect fill="#EDF0F2" height="276.8555" style="stroke:#BABDBF;stroke-width:1.0416666666666667;" width="10.4167" x="524.4792" y="685.9049"/><rect fill="#EDF0F2" height="118.6523" style="stroke:#BABDBF;stroke-width:1.0416666666666667;" width="10.4167" x="741.1458" y="171.7448"/><rect fill="#EDF0F2" height="118.6523" style="stroke:#BABDBF;stroke-width:1.0416666666666667;" width="10.4167" x="741.1458" y="488.151"/><rect fill="#EDF0F2" height="118.6523" style="stroke:#BABDBF;stroke-width:1.0416666666666667;" width="10.4167" x="741.1458" y="765.0065"/><rect fill="#EDF0F2" height="39.5508" style="stroke:#BABDBF;stroke-width:1.0416666666666667;" width="10.4167" x="950.5208" y="211.2956"/><rect fill="#EDF0F2" height="39.5508" style="stroke:#BABDBF;stroke-width:1.0416666666666667;" width="10.4167" x="950.5208" y="527.7018"/><rect fill="#EDF0F2" height="39.5508" style="stroke:#BABDBF;stroke-width:1.0416666666666667;" width="10.4167" x="950.5208" y="804.5573"/><rect fill="#EDF0F2" height="197.7539" style="stroke:#BABDBF;stroke-width:1.0416666666666667;" width="10.4167" x="1117.7083" y="725.4557"/><line style="stroke:#BABDBF;stroke-width:1.0416666666666667;stroke-dasharray:5.0,5.0;" x1="84.375" x2="84.375" y1="51.0091" y2="1021.0612"/><line style="stroke:#BABDBF;stroke-width:1.0416666666666667;stroke-dasharray:5.0,5.0;" x1="283.3333" x2="283.3333" y1="51.0091" y2="1021.0612"/><line style="stroke:#BABDBF;stroke-width:1.0416666666666667;stroke-dasharray:5.0,5.0;" x1="529.6875" x2="529.6875" y1="51.0091" y2="1021.0612"/><line style="stroke:#BABDBF;stroke-width:1.0416666666666667;stroke-dasharray:5.0,5.0;" x1="745.8333" x2="745.8333" y1="51.0091" y2="1021.0612"/><line style="stroke:#BABDBF;stroke-width:1.0416666666666667;stroke-dasharray:5.0,5.0;" x1="955.2083" x2="955.2083" y1="51.0091" y2="1021.0612"/><line style="stroke:#BABDBF;stroke-width:1.0416666666666667;stroke-dasharray:5.0,5.0;" x1="1122.9167" x2="1122.9167" y1="51.0091" y2="1021.0612"/><rect fill="url(#g19i7t29zqfi160)" height="39.5508" rx="4.1667" ry="4.1667" style="stroke:#2FA4E7;stroke-width:1.0416666666666667;" width="55.2083" x="57.2917" y="10.4167"/><text fill="#FFFFFF" font-family="Verdana" font-size="12.5" lengthAdjust="spacing" textLength="30.2083" x="69.7917" y="34.5194">User</text><rect fill="url(#g19i7t29zqfi160)" height="39.5508" rx="4.1667" ry="4.1667" style="stroke:#2FA4E7;stroke-width:1.0416666666666667;" width="55.2083" x="256.25" y="10.4167"/><text fill="#FFFFFF" font-family="Verdana" font-size="12.5" lengthAdjust="spacing" textLength="30.2083" x="268.75" y="34.5194">View</text><rect fill="url(#g19i7t29zqfi160)" height="39.5508" rx="4.1667" ry="4.1667" style="stroke:#2FA4E7;stroke-width:1.0416666666666667;" width="54.1667" x="502.6042" y="10.4167"/><text fill="#FFFFFF" font-family="Verdana" font-size="12.5" lengthAdjust="spacing" textLength="29.1667" x="515.1042" y="34.5194">Host</text><rect fill="url(#g19i7t29zqfi160)" height="39.5508" rx="4.1667" ry="4.1667" style="stroke:#2FA4E7;stroke-width:1.0416666666666667;" width="86.4583" x="703.125" y="10.4167"/><text fill="#FFFFFF" font-family="Verdana" font-size="12.5" lengthAdjust="spacing" textLength="61.4583" x="715.625" y="34.5194">Controller</text><rect fill="url(#g19i7t29zqfi160)" height="39.5508" rx="4.1667" ry="4.1667" style="stroke:#2FA4E7;stroke-width:1.0416666666666667;" width="63.5417" x="923.9583" y="10.4167"/><text fill="#FFFFFF" font-family="Verdana" font-size="12.5" lengthAdjust="spacing" textLength="38.5417" x="936.4583" y="34.5194">Model</text><rect fill="url(#g19i7t29zqfi160)" height="39.5508" rx="4.1667" ry="4.1667" style="stroke:#2FA4E7;stroke-width:1.0416666666666667;" width="83.3333" x="1081.25" y="10.4167"/><text fill="#FFFFFF" font-family="Verdana" font-size="12.5" lengthAdjust="spacing" textLength="58.3333" x="1093.75" y="34.5194">Simulator</text><rect fill="#EDF0F2" height="276.8555" style="stroke:#BABDBF;stroke-width:1.0416666666666667;" width="10.4167" x="278.6458" y="92.6432"/><rect fill="#EDF0F2" height="593.2617" style="stroke:#BABDBF;stroke-width:1.0416666666666667;" width="10.4167" x="278.6458" y="409.0495"/><rect fill="#EDF0F2" height="197.7539" style="stroke:#BABDBF;stroke-width:1.0416666666666667;" width="10.4167" x="524.4792" y="132.194"/><rect fill="#EDF0F2" height="197.7539" style="stroke:#BABDBF;stroke-width:1.0416666666666667;" width="10.4167" x="524.4792" y="448.6003"/><rect fill="#EDF0F2" height="276.8555" style="stroke:#BABDBF;stroke-width:1.0416666666666667;" width="10.4167" x="524.4792" y="685.9049"/><rect fill="#EDF0F2" height="118.6523" style="stroke:#BABDBF;stroke-width:1.0416666666666667;" width="10.4167" x="741.1458" y="171.7448"/><rect fill="#EDF0F2" height="118.6523" style="stroke:#BABDBF;stroke-width:1.0416666666666667;" width="10.4167" x="741.1458" y="488.151"/><rect fill="#EDF0F2" height="118.6523" style="stroke:#BABDBF;stroke-width:1.0416666666666667;" width="10.4167" x="741.1458" y="765.0065"/><rect fill="#EDF0F2" height="39.5508" style="stroke:#BABDBF;stroke-width:1.0416666666666667;" width="10.4167" x="950.5208" y="211.2956"/><rect fill="#EDF0F2" height="39.5508" style="stroke:#BABDBF;stroke-width:1.0416666666666667;" width="10.4167" x="950.5208" y="527.7018"/><rect fill="#EDF0F2" height="39.5508" style="stroke:#BABDBF;stroke-width:1.0416666666666667;" width="10.4167" x="950.5208" y="804.5573"/><rect fill="#EDF0F2" height="197.7539" style="stroke:#BABDBF;stroke-width:1.0416666666666667;" width="10.4167" x="1117.7083" y="725.4557"/><polygon fill="#2FA4E7" points="266.1458,88.4766,276.5625,92.6432,266.1458,96.8099" style="stroke:#2FA4E7;stroke-width:1.0416666666666667;"/><line style="stroke:#2FA4E7;stroke-width:3.125;" x1="84.8958" x2="272.3958" y1="92.6432" y2="92.6432"/><text fill="#343A40" font-family="Verdana" font-size="12.5" lengthAdjust="spacing" textLength="120.8333" x="121.3542" y="82.4036">input game params</text><polygon fill="#2FA4E7" points="511.9792,128.0273,522.3958,132.194,511.9792,136.3607" style="stroke:#2FA4E7;stroke-width:1.0416666666666667;"/><line style="stroke:#2FA4E7;stroke-width:3.125;" x1="289.0625" x2="518.2292" y1="132.194" y2="132.194"/><text fill="#343A40" font-family="Verdana" font-size="12.5" lengthAdjust="spacing" textLength="205.2083" x="304.1667" y="121.9543">{POST} /monte_carlo/game_data</text><polygon fill="#2FA4E7" points="728.6458,167.5781,739.0625,171.7448,728.6458,175.9115" style="stroke:#2FA4E7;stroke-width:1.0416666666666667;"/><line style="stroke:#2FA4E7;stroke-width:3.125;" x1="534.8958" x2="734.8958" y1="171.7448" y2="171.7448"/><text fill="#343A40" font-family="Verdana" font-size="12.5" lengthAdjust="spacing" textLength="91.6667" x="592.1875" y="161.5051">get game data</text><polygon fill="#2FA4E7" points="938.0208,207.1289,948.4375,211.2956,938.0208,215.4622" style="stroke:#2FA4E7;stroke-width:1.0416666666666667;"/><line style="stroke:#2FA4E7;stroke-width:3.125;" x1="751.5625" x2="944.2708" y1="211.2956" y2="211.2956"/><text fill="#343A40" font-family="Verdana" font-size="12.5" lengthAdjust="spacing" textLength="163.5417" x="769.2708" y="201.0559">read schedule for params</text><polygon fill="#2FA4E7" points="763.0208,246.6797,752.6042,250.8464,763.0208,255.013" style="stroke:#2FA4E7;stroke-width:1.0416666666666667;"/><line style="stroke:#2FA4E7;stroke-width:3.125;stroke-dasharray:2.0,2.0;" x1="756.7708" x2="954.6875" y1="250.8464" y2="250.8464"/><text fill="#343A40" font-family="Verdana" font-size="12.5" lengthAdjust="spacing" textLength="153.125" x="777.0833" y="240.6067">return schedule records</text><polygon fill="#2FA4E7" points="546.3542,286.2305,535.9375,290.3971,546.3542,294.5638" style="stroke:#2FA4E7;stroke-width:1.0416666666666667;"/><line style="stroke:#2FA4E7;stroke-width:3.125;stroke-dasharray:2.0,2.0;" x1="540.1042" x2="745.3125" y1="290.3971" y2="290.3971"/><text fill="#343A40" font-family="Verdana" font-size="12.5" lengthAdjust="spacing" textLength="170.8333" x="555.2083" y="280.1575">return schedule DataFrame</text><polygon fill="#2FA4E7" points="300.5208,325.7813,290.1042,329.9479,300.5208,334.1146" style="stroke:#2FA4E7;stroke-width:1.0416666666666667;"/><line style="stroke:#2FA4E7;stroke-width:3.125;stroke-dasharray:2.0,2.0;" x1="294.2708" x2="528.6458" y1="329.9479" y2="329.9479"/><text fill="#343A40" font-family="Verdana" font-size="12.5" lengthAdjust="spacing" textLength="169.7917" x="324.4792" y="319.7083">response {schedule, 200}</text><polygon fill="#2FA4E7" points="96.3542,365.332,85.9375,369.4987,96.3542,373.6654" style="stroke:#2FA4E7;stroke-width:1.0416666666666667;"/><line style="stroke:#2FA4E7;stroke-width:3.125;stroke-dasharray:2.0,2.0;" x1="90.1042" x2="282.8125" y1="369.4987" y2="369.4987"/><text fill="#343A40" font-family="Verdana" font-size="12.5" lengthAdjust="spacing" textLength="106.25" x="131.25" y="359.259">display schedule</text><polygon fill="#2FA4E7" points="266.1458,404.8828,276.5625,409.0495,266.1458,413.2161" style="stroke:#2FA4E7;stroke-width:1.0416666666666667;"/><line style="stroke:#2FA4E7;stroke-width:3.125;" x1="84.8958" x2="272.3958" y1="409.0495" y2="409.0495"/><text fill="#343A40" font-family="Verdana" font-size="12.5" lengthAdjust="spacing" textLength="113.5417" x="125" y="398.8098">simulate selection</text><polygon fill="#2FA4E7" points="511.9792,444.4336,522.3958,448.6003,511.9792,452.7669" style="stroke:#2FA4E7;stroke-width:1.0416666666666667;"/><line style="stroke:#2FA4E7;stroke-width:3.125;" x1="289.0625" x2="518.2292" y1="448.6003" y2="448.6003"/><text fill="#343A40" font-family="Verdana" font-size="12.5" lengthAdjust="spacing" textLength="198.9583" x="307.2917" y="438.3606">{GET} /monte_carlo/team_in_db</text><polygon fill="#2FA4E7" points="728.6458,483.9844,739.0625,488.151,728.6458,492.3177" style="stroke:#2FA4E7;stroke-width:1.0416666666666667;"/><line style="stroke:#2FA4E7;stroke-width:3.125;" x1="534.8958" x2="734.8958" y1="488.151" y2="488.151"/><text fill="#343A40" font-family="Verdana" font-size="12.5" lengthAdjust="spacing" textLength="173.9583" x="551.0417" y="477.9114">check teams/seasons in DB</text><polygon fill="#2FA4E7" points="938.0208,523.5352,948.4375,527.7018,938.0208,531.8685" style="stroke:#2FA4E7;stroke-width:1.0416666666666667;"/><line style="stroke:#2FA4E7;stroke-width:3.125;" x1="751.5625" x2="944.2708" y1="527.7018" y2="527.7018"/><text fill="#343A40" font-family="Verdana" font-size="12.5" lengthAdjust="spacing" textLength="168.75" x="766.6667" y="517.4622">regular season data in DB?</text><polygon fill="#2FA4E7" points="763.0208,563.0859,752.6042,567.2526,763.0208,571.4193" style="stroke:#2FA4E7;stroke-width:1.0416666666666667;"/><line style="stroke:#2FA4E7;stroke-width:3.125;stroke-dasharray:2.0,2.0;" x1="756.7708" x2="954.6875" y1="567.2526" y2="567.2526"/><text fill="#343A40" font-family="Verdana" font-size="12.5" lengthAdjust="spacing" textLength="107.2917" x="800" y="557.0129">return True/False</text><polygon fill="#2FA4E7" points="546.3542,602.6367,535.9375,606.8034,546.3542,610.9701" style="stroke:#2FA4E7;stroke-width:1.0416666666666667;"/><line style="stroke:#2FA4E7;stroke-width:3.125;stroke-dasharray:2.0,2.0;" x1="540.1042" x2="745.3125" y1="606.8034" y2="606.8034"/><text fill="#343A40" font-family="Verdana" font-size="12.5" lengthAdjust="spacing" textLength="107.2917" x="586.9792" y="596.5637">return True/False</text><polygon fill="#2FA4E7" points="300.5208,642.1875,290.1042,646.3542,300.5208,650.5208" style="stroke:#2FA4E7;stroke-width:1.0416666666666667;"/><line style="stroke:#2FA4E7;stroke-width:3.125;stroke-dasharray:2.0,2.0;" x1="294.2708" x2="528.6458" y1="646.3542" y2="646.3542"/><text fill="#343A40" font-family="Verdana" font-size="12.5" lengthAdjust="spacing" textLength="104.1667" x="357.2917" y="636.1145">response {200}</text><polygon fill="#2FA4E7" points="511.9792,681.7383,522.3958,685.9049,511.9792,690.0716" style="stroke:#2FA4E7;stroke-width:1.0416666666666667;"/><line style="stroke:#2FA4E7;stroke-width:3.125;" x1="289.0625" x2="518.2292" y1="685.9049" y2="685.9049"/><text fill="#343A40" font-family="Verdana" font-size="12.5" lengthAdjust="spacing" textLength="190.625" x="311.4583" y="675.6653">{GET} /monte_carlo/simulation</text><polygon fill="#2FA4E7" points="1105.2083,721.2891,1115.625,725.4557,1105.2083,729.6224" style="stroke:#2FA4E7;stroke-width:1.0416666666666667;"/><line style="stroke:#2FA4E7;stroke-width:3.125;" x1="534.8958" x2="1111.4583" y1="725.4557" y2="725.4557"/><text fill="#343A40" font-family="Verdana" font-size="12.5" lengthAdjust="spacing" textLength="165.625" x="743.4896" y="715.2161">run Monte Carlo simulation</text><polygon fill="#2FA4E7" points="763.0208,760.8398,752.6042,765.0065,763.0208,769.1732" style="stroke:#2FA4E7;stroke-width:1.0416666666666667;"/><line style="stroke:#2FA4E7;stroke-width:3.125;" x1="756.7708" x2="1116.6667" y1="765.0065" y2="765.0065"/><text fill="#343A40" font-family="Verdana" font-size="12.5" lengthAdjust="spacing" textLength="182.2917" x="843.4896" y="754.7668">assemble teams and players</text><polygon fill="#2FA4E7" points="938.0208,800.3906,948.4375,804.5573,938.0208,808.724" style="stroke:#2FA4E7;stroke-width:1.0416666666666667;"/><line style="stroke:#2FA4E7;stroke-width:3.125;" x1="751.5625" x2="944.2708" y1="804.5573" y2="804.5573"/><text fill="#343A40" font-family="Verdana" font-size="12.5" lengthAdjust="spacing" textLength="98.9583" x="801.5625" y="794.3176">read stat tables</text><polygon fill="#2FA4E7" points="763.0208,839.9414,752.6042,844.1081,763.0208,848.2747" style="stroke:#2FA4E7;stroke-width:1.0416666666666667;"/><line style="stroke:#2FA4E7;stroke-width:3.125;stroke-dasharray:2.0,2.0;" x1="756.7708" x2="954.6875" y1="844.1081" y2="844.1081"/><text fill="#343A40" font-family="Verdana" font-size="12.5" lengthAdjust="spacing" textLength="107.2917" x="800" y="833.8684">return stat tables</text><polygon fill="#2FA4E7" points="1105.2083,879.4922,1115.625,883.6589,1105.2083,887.8255" style="stroke:#2FA4E7;stroke-width:1.0416666666666667;"/><line style="stroke:#2FA4E7;stroke-width:3.125;stroke-dasharray:2.0,2.0;" x1="746.3542" x2="1111.4583" y1="883.6589" y2="883.6589"/><text fill="#343A40" font-family="Verdana" font-size="12.5" lengthAdjust="spacing" textLength="165.625" x="849.2188" y="873.4192">team and player instances</text><polygon fill="#2FA4E7" points="546.3542,919.043,535.9375,923.2096,546.3542,927.3763" style="stroke:#2FA4E7;stroke-width:1.0416666666666667;"/><line style="stroke:#2FA4E7;stroke-width:3.125;stroke-dasharray:2.0,2.0;" x1="540.1042" x2="1121.875" y1="923.2096" y2="923.2096"/><text fill="#343A40" font-family="Verdana" font-size="12.5" lengthAdjust="spacing" textLength="261.4583" x="698.1771" y="912.97">returns str List[graphs(Base64) and data]</text><polygon fill="#2FA4E7" points="300.5208,958.5938,290.1042,962.7604,300.5208,966.9271" style="stroke:#2FA4E7;stroke-width:1.0416666666666667;"/><line style="stroke:#2FA4E7;stroke-width:3.125;stroke-dasharray:2.0,2.0;" x1="294.2708" x2="528.6458" y1="962.7604" y2="962.7604"/><text fill="#343A40" font-family="Verdana" font-size="12.5" lengthAdjust="spacing" textLength="151.0417" x="333.8542" y="952.5208">response{results, 200}</text><polygon fill="#2FA4E7" points="96.3542,998.1445,85.9375,1002.3112,96.3542,1006.4779" style="stroke:#2FA4E7;stroke-width:1.0416666666666667;"/><line style="stroke:#2FA4E7;stroke-width:3.125;stroke-dasharray:2.0,2.0;" x1="90.1042" x2="282.8125" y1="1002.3112" y2="1002.3112"/><text fill="#343A40" font-family="Verdana" font-size="12.5" lengthAdjust="spacing" textLength="158.3333" x="105.2083" y="992.0715">display simulation results</text><!--SRC=[bLHHRzD037xFhp1F1Ocf4q8yz074DWOFJ21ry89GvIOcFNgv2-UxeQxQVyUNfDabTDtwSfV4_kpF_kmyyokg279oGHEQR6882hlyZR1MW3feGE1RT7QDVfBnMfaQ7LOmznjDmDwft8TAPvErlQMQZBYRZT83L_eJoEHqHSnOqdkjIbEHyPBKU79P9cvUvQf6-VQDoG4o1Ba7Xk-A_aR3ZTm3moVBFXfMSWyCvzPuPxLk0-Rjsy3ZoXQaex6A3mFJN5L1exSDbdSlMHPvmSdRXiOCfCJWeKJfO5ChPndcNjsWfvPeFA9x93U3xTSly-ixc5R2XHOvEcsd4Rmeq6C2RKg9HuHsn6TGKfTgvBshhBiZfgbd1ewm0CvNL8Yuy4kA-OzbMtbpmacQpP4FpjoZ7UNM5PmLDCBUv-th76ClXF2b9AOKlQFT5Thtr17NrZ31TeT_2QzEJ-zIRDEWhha2ZABCe51SQzpqQLD08yP8l4vLcMBI98xM71RluuUnTfwmMYYpA9QFYYUSyZL404-PaAL2cHwuE7kYaALGTT0Ycm5eqU-EaFBQ1PfUecOwHiJzg5wyXzKxfDc1ddQg3DHeeRkUzjiesOAH9HOmd4Smx0Cdozi_3gH1PggMCgQDEe2cW3X7vFY89VFemQD4EMgv4jHXIPAQ8yk4fCo1X97VA-_L9obvf2p7lpTyLkn_b0xh5Jy_GwOthryqmUE8_KmZ9cryGFAjF0Jj-TXrxJM3Bi1uSVy1]--></g></svg>