<?xml version="1.0" encoding="us-ascii" standalone="no"?><svg xmlns="http://www.w3.org/2000/svg" xmlns:xlink="http://www.w3.org/1999/xlink" contentStyleType="text/css" height="703px" preserveAspectRatio="none" style="width:900px;height:703px;background:#FFFFFF;" version="1.1" viewBox="0 0 900 703" width="900px" zoomAndPan="magnify"><defs/><g><rect fill="#E0E0E0" height="187.6328" style="stroke:#2A86E2;stroke-width:1.0;" width="10" x="193" y="61.6094"/><rect fill="#E0E0E0" height="402.0703" style="stroke:#2A86E2;stroke-width:1.0;" width="10" x="193" y="276.0469"/><rect fill="#E0E0E0" height="134.0234" style="stroke:#2A86E2;stroke-width:1.0;" width="10" x="412" y="88.4141"/><rect fill="#E0E0E0" height="134.0234" style="stroke:#2A86E2;stroke-width:1.0;" width="10" x="412" y="302.8516"/><rect fill="#E0E0E0" height="187.6328" style="stroke:#2A86E2;stroke-width:1.0;" width="10" x="412" y="463.6797"/><rect fill="#E0E0E0" height="80.4141" style="stroke:#2A86E2;stroke-width:1.0;" width="10" x="603" y="115.2188"/><rect fill="#E0E0E0" height="80.4141" style="stroke:#2A86E2;stroke-width:1.0;" width="10" x="603" y="329.6563"/><rect fill="#E0E0E0" height="80.4141" style="stroke:#2A86E2;stroke-width:1.0;" width="10" x="603" y="517.2891"/><rect fill="#E0E0E0" height="26.8047" style="stroke:#2A86E2;stroke-width:1.0;" width="10" x="787" y="142.0234"/><rect fill="#E0E0E0" height="26.8047" style="stroke:#2A86E2;stroke-width:1.0;" width="10" x="787" y="356.4609"/><rect fill="#E0E0E0" height="26.8047" style="stroke:#2A86E2;stroke-width:1.0;" width="10" x="787" y="544.0938"/><rect fill="#E0E0E0" height="134.0234" style="stroke:#2A86E2;stroke-width:1.0;" width="10" x="855" y="490.4844"/><line style="stroke:#2A86E2;stroke-width:0.5;stroke-dasharray:5.0,5.0;" x1="25" x2="25" y1="32.8047" y2="696.1172"/><line style="stroke:#2A86E2;stroke-width:0.5;stroke-dasharray:5.0,5.0;" x1="198" x2="198" y1="32.8047" y2="696.1172"/><line style="stroke:#2A86E2;stroke-width:0.5;stroke-dasharray:5.0,5.0;" x1="416.5" x2="416.5" y1="32.8047" y2="696.1172"/><line style="stroke:#2A86E2;stroke-width:0.5;stroke-dasharray:5.0,5.0;" x1="607.5" x2="607.5" y1="32.8047" y2="696.1172"/><line style="stroke:#2A86E2;stroke-width:0.5;stroke-dasharray:5.0,5.0;" x1="792" x2="792" y1="32.8047" y2="696.1172"/><line style="stroke:#2A86E2;stroke-width:0.5;stroke-dasharray:5.0,5.0;" x1="860" x2="860" y1="32.8047" y2="696.1172"/><rect fill="#CCCCCC" height="26.8047" rx="2.5" ry="2.5" style="stroke:#AAAAAA;stroke-width:0.5;" width="40" x="5" y="5"/><text fill="#000000" font-family="Verdana" font-size="11" lengthAdjust="spacing" textLength="26" x="12" y="22.2104">User</text><rect fill="#CCCCCC" height="26.8047" rx="2.5" ry="2.5" style="stroke:#AAAAAA;stroke-width:0.5;" width="42" x="177" y="5"/><text fill="#000000" font-family="Verdana" font-size="11" lengthAdjust="spacing" textLength="28" x="184" y="22.2104">View</text><rect fill="#CCCCCC" height="26.8047" rx="2.5" ry="2.5" style="stroke:#AAAAAA;stroke-width:0.5;" width="39" x="397.5" y="5"/><text fill="#000000" font-family="Verdana" font-size="11" lengthAdjust="spacing" textLength="25" x="404.5" y="22.2104">Host</text><rect fill="#CCCCCC" height="26.8047" rx="2.5" ry="2.5" style="stroke:#AAAAAA;stroke-width:0.5;" width="69" x="573.5" y="5"/><text fill="#000000" font-family="Verdana" font-size="11" lengthAdjust="spacing" textLength="55" x="580.5" y="22.2104">Controller</text><rect fill="#CCCCCC" height="26.8047" rx="2.5" ry="2.5" style="stroke:#AAAAAA;stroke-width:0.5;" width="48" x="768" y="5"/><text fill="#000000" font-family="Verdana" font-size="11" lengthAdjust="spacing" textLength="34" x="775" y="22.2104">Model</text><rect fill="#CCCCCC" height="26.8047" rx="2.5" ry="2.5" style="stroke:#AAAAAA;stroke-width:0.5;" width="68" x="826" y="5"/><text fill="#000000" font-family="Verdana" font-size="11" lengthAdjust="spacing" textLength="54" x="833" y="22.2104">Simulator</text><rect fill="#E0E0E0" height="187.6328" style="stroke:#2A86E2;stroke-width:1.0;" width="10" x="193" y="61.6094"/><rect fill="#E0E0E0" height="402.0703" style="stroke:#2A86E2;stroke-width:1.0;" width="10" x="193" y="276.0469"/><rect fill="#E0E0E0" height="134.0234" style="stroke:#2A86E2;stroke-width:1.0;" width="10" x="412" y="88.4141"/><rect fill="#E0E0E0" height="134.0234" style="stroke:#2A86E2;stroke-width:1.0;" width="10" x="412" y="302.8516"/><rect fill="#E0E0E0" height="187.6328" style="stroke:#2A86E2;stroke-width:1.0;" width="10" x="412" y="463.6797"/><rect fill="#E0E0E0" height="80.4141" style="stroke:#2A86E2;stroke-width:1.0;" width="10" x="603" y="115.2188"/><rect fill="#E0E0E0" height="80.4141" style="stroke:#2A86E2;stroke-width:1.0;" width="10" x="603" y="329.6563"/><rect fill="#E0E0E0" height="80.4141" style="stroke:#2A86E2;stroke-width:1.0;" width="10" x="603" y="517.2891"/><rect fill="#E0E0E0" height="26.8047" style="stroke:#2A86E2;stroke-width:1.0;" width="10" x="787" y="142.0234"/><rect fill="#E0E0E0" height="26.8047" style="stroke:#2A86E2;stroke-width:1.0;" width="10" x="787" y="356.4609"/><rect fill="#E0E0E0" height="26.8047" style="stroke:#2A86E2;stroke-width:1.0;" width="10" x="787" y="544.0938"/><rect fill="#E0E0E0" height="134.0234" style="stroke:#2A86E2;stroke-width:1.0;" width="10" x="855" y="490.4844"/><polygon fill="#000000" points="181,57.6094,191,61.6094,181,65.6094" style="stroke:#000000;stroke-width:1.0;"/><line style="stroke:#000000;stroke-width:1.0;" x1="25" x2="187" y1="61.6094" y2="61.6094"/><text fill="#333333" font-family="Verdana" font-size="11" lengthAdjust="spacing" textLength="111" x="53.5" y="57.0151">input game params</text><polygon fill="#000000" points="400,84.4141,410,88.4141,400,92.4141" style="stroke:#000000;stroke-width:1.0;"/><line style="stroke:#000000;stroke-width:1.0;" x1="203" x2="406" y1="88.4141" y2="88.4141"/><text fill="#333333" font-family="Verdana" font-size="11" lengthAdjust="spacing" textLength="190" x="212.5" y="83.8198">{POST} /monte_carlo/game_data</text><polygon fill="#000000" points="591,111.2188,601,115.2188,591,119.2188" style="stroke:#000000;stroke-width:1.0;"/><line style="stroke:#000000;stroke-width:1.0;" x1="422" x2="597" y1="115.2188" y2="115.2188"/><text fill="#333333" font-family="Verdana" font-size="11" lengthAdjust="spacing" textLength="85" x="470" y="110.6245">get game data</text><polygon fill="#000000" points="775,138.0234,785,142.0234,775,146.0234" style="stroke:#000000;stroke-width:1.0;"/><line style="stroke:#000000;stroke-width:1.0;" x1="613" x2="781" y1="142.0234" y2="142.0234"/><text fill="#333333" font-family="Verdana" font-size="11" lengthAdjust="spacing" textLength="147" x="626.5" y="137.4292">read schedule for params</text><polygon fill="#000000" points="624,164.8281,614,168.8281,624,172.8281" style="stroke:#000000;stroke-width:1.0;"/><line style="stroke:#000000;stroke-width:1.0;stroke-dasharray:2.0,2.0;" x1="618" x2="791" y1="168.8281" y2="168.8281"/><text fill="#333333" font-family="Verdana" font-size="11" lengthAdjust="spacing" textLength="136" x="634.5" y="164.2339">return schedule records</text><polygon fill="#000000" points="433,191.6328,423,195.6328,433,199.6328" style="stroke:#000000;stroke-width:1.0;"/><line style="stroke:#000000;stroke-width:1.0;stroke-dasharray:2.0,2.0;" x1="427" x2="607" y1="195.6328" y2="195.6328"/><text fill="#333333" font-family="Verdana" font-size="11" lengthAdjust="spacing" textLength="157" x="436.5" y="191.0386">return schedule DataFrame</text><polygon fill="#000000" points="214,218.4375,204,222.4375,214,226.4375" style="stroke:#000000;stroke-width:1.0;"/><line style="stroke:#000000;stroke-width:1.0;stroke-dasharray:2.0,2.0;" x1="208" x2="416" y1="222.4375" y2="222.4375"/><text fill="#333333" font-family="Verdana" font-size="11" lengthAdjust="spacing" textLength="151" x="234.5" y="217.8433">response {schedule, 200}</text><polygon fill="#000000" points="36,245.2422,26,249.2422,36,253.2422" style="stroke:#000000;stroke-width:1.0;"/><line style="stroke:#000000;stroke-width:1.0;stroke-dasharray:2.0,2.0;" x1="30" x2="197" y1="249.2422" y2="249.2422"/><text fill="#333333" font-family="Verdana" font-size="11" lengthAdjust="spacing" textLength="96" x="63.5" y="244.6479">display schedule</text><polygon fill="#000000" points="181,272.0469,191,276.0469,181,280.0469" style="stroke:#000000;stroke-width:1.0;"/><line style="stroke:#000000;stroke-width:1.0;" x1="25" x2="187" y1="276.0469" y2="276.0469"/><text fill="#333333" font-family="Verdana" font-size="11" lengthAdjust="spacing" textLength="105" x="56.5" y="271.4526">simulate selection</text><polygon fill="#000000" points="400,298.8516,410,302.8516,400,306.8516" style="stroke:#000000;stroke-width:1.0;"/><line style="stroke:#000000;stroke-width:1.0;" x1="203" x2="406" y1="302.8516" y2="302.8516"/><text fill="#333333" font-family="Verdana" font-size="11" lengthAdjust="spacing" textLength="185" x="215" y="298.2573">{GET} /monte_carlo/team_in_db</text><polygon fill="#000000" points="591,325.6563,601,329.6563,591,333.6563" style="stroke:#000000;stroke-width:1.0;"/><line style="stroke:#000000;stroke-width:1.0;" x1="422" x2="597" y1="329.6563" y2="329.6563"/><text fill="#333333" font-family="Verdana" font-size="11" lengthAdjust="spacing" textLength="159" x="433" y="325.062">check teams/seasons in DB</text><polygon fill="#000000" points="775,352.4609,785,356.4609,775,360.4609" style="stroke:#000000;stroke-width:1.0;"/><line style="stroke:#000000;stroke-width:1.0;" x1="613" x2="781" y1="356.4609" y2="356.4609"/><text fill="#333333" font-family="Verdana" font-size="11" lengthAdjust="spacing" textLength="155" x="622.5" y="351.8667">regular season data in DB?</text><polygon fill="#000000" points="624,379.2656,614,383.2656,624,387.2656" style="stroke:#000000;stroke-width:1.0;"/><line style="stroke:#000000;stroke-width:1.0;stroke-dasharray:2.0,2.0;" x1="618" x2="791" y1="383.2656" y2="383.2656"/><text fill="#333333" font-family="Verdana" font-size="11" lengthAdjust="spacing" textLength="98" x="653.5" y="378.6714">return True/False</text><polygon fill="#000000" points="433,406.0703,423,410.0703,433,414.0703" style="stroke:#000000;stroke-width:1.0;"/><line style="stroke:#000000;stroke-width:1.0;stroke-dasharray:2.0,2.0;" x1="427" x2="607" y1="410.0703" y2="410.0703"/><text fill="#333333" font-family="Verdana" font-size="11" lengthAdjust="spacing" textLength="98" x="466" y="405.4761">return True/False</text><polygon fill="#000000" points="214,432.875,204,436.875,214,440.875" style="stroke:#000000;stroke-width:1.0;"/><line style="stroke:#000000;stroke-width:1.0;stroke-dasharray:2.0,2.0;" x1="208" x2="416" y1="436.875" y2="436.875"/><text fill="#333333" font-family="Verdana" font-size="11" lengthAdjust="spacing" textLength="92" x="264" y="432.2808">response {200}</text><polygon fill="#000000" points="400,459.6797,410,463.6797,400,467.6797" style="stroke:#000000;stroke-width:1.0;"/><line style="stroke:#000000;stroke-width:1.0;" x1="203" x2="406" y1="463.6797" y2="463.6797"/><text fill="#333333" font-family="Verdana" font-size="11" lengthAdjust="spacing" textLength="177" x="219" y="459.0854">{GET} /monte_carlo/simulation</text><polygon fill="#000000" points="843,486.4844,853,490.4844,843,494.4844" style="stroke:#000000;stroke-width:1.0;"/><line style="stroke:#000000;stroke-width:1.0;" x1="422" x2="849" y1="490.4844" y2="490.4844"/><text fill="#333333" font-family="Verdana" font-size="11" lengthAdjust="spacing" textLength="152" x="562.5" y="485.8901">run Monte Carlo simulation</text><polygon fill="#000000" points="624,513.2891,614,517.2891,624,521.2891" style="stroke:#000000;stroke-width:1.0;"/><line style="stroke:#000000;stroke-width:1.0;" x1="618" x2="854" y1="517.2891" y2="517.2891"/><text fill="#333333" font-family="Verdana" font-size="11" lengthAdjust="spacing" textLength="167" x="650.5" y="512.6948">assemble teams and players</text><polygon fill="#000000" points="775,540.0938,785,544.0938,775,548.0938" style="stroke:#000000;stroke-width:1.0;"/><line style="stroke:#000000;stroke-width:1.0;" x1="613" x2="781" y1="544.0938" y2="544.0938"/><text fill="#333333" font-family="Verdana" font-size="11" lengthAdjust="spacing" textLength="90" x="655" y="539.4995">read stat tables</text><polygon fill="#000000" points="624,566.8984,614,570.8984,624,574.8984" style="stroke:#000000;stroke-width:1.0;"/><line style="stroke:#000000;stroke-width:1.0;stroke-dasharray:2.0,2.0;" x1="618" x2="791" y1="570.8984" y2="570.8984"/><text fill="#333333" font-family="Verdana" font-size="11" lengthAdjust="spacing" textLength="98" x="653.5" y="566.3042">return stat tables</text><polygon fill="#000000" points="843,593.7031,853,597.7031,843,601.7031" style="stroke:#000000;stroke-width:1.0;"/><line style="stroke:#000000;stroke-width:1.0;stroke-dasharray:2.0,2.0;" x1="608" x2="849" y1="597.7031" y2="597.7031"/><text fill="#333333" font-family="Verdana" font-size="11" lengthAdjust="spacing" textLength="153" x="655" y="593.1089">team and player instances</text><polygon fill="#000000" points="433,620.5078,423,624.5078,433,628.5078" style="stroke:#000000;stroke-width:1.0;"/><line style="stroke:#000000;stroke-width:1.0;stroke-dasharray:2.0,2.0;" x1="427" x2="859" y1="624.5078" y2="624.5078"/><text fill="#333333" font-family="Verdana" font-size="11" lengthAdjust="spacing" textLength="232" x="525" y="619.9136">returns str List[graphs(Base64) and data]</text><polygon fill="#000000" points="214,647.3125,204,651.3125,214,655.3125" style="stroke:#000000;stroke-width:1.0;"/><line style="stroke:#000000;stroke-width:1.0;stroke-dasharray:2.0,2.0;" x1="208" x2="416" y1="651.3125" y2="651.3125"/><text fill="#333333" font-family="Verdana" font-size="11" lengthAdjust="spacing" textLength="133" x="243.5" y="646.7183">response{results, 200}</text><polygon fill="#000000" points="36,674.1172,26,678.1172,36,682.1172" style="stroke:#000000;stroke-width:1.0;"/><line style="stroke:#000000;stroke-width:1.0;stroke-dasharray:2.0,2.0;" x1="30" x2="197" y1="678.1172" y2="678.1172"/><text fill="#333333" font-family="Verdana" font-size="11" lengthAdjust="spacing" textLength="144" x="39.5" y="673.5229">display simulation results</text><!--SRC=[bLJ1ZjD03BtdAyof855rXH277a3iBWi7LY1ruO9GvMPCEdGo2UEPHTrg_nrFacOdeLlePIQ9_UndFpjF_9fA0aTAEMAU6bsi_Se4oYQMG5MhdmWR3MY20GI-GrTjq4yotcXReyCI5dvh2DWxdVjGccoogUwe9YlkTglDm9L-1R8vNKicBEYj9BCbMG-v7EIoJDoypdMDykqBamDa278F35yr_Ow6Mxa7XWyL-sXOopqmN5JMkygODc3UlWqyhYj59XhB-30mBNGP3FggmVB-9SiYBvY-RcZCGKeC7WgKNZQrSfPXxlKjUcg9nYEwHt9ps7t-jBYvXrafN6YPepFLB8AN2ZqcqAQKU4HeHtmE1NMfHjxxohexOffwvg8lAk1yJIg8M3-acBzOjfKt9qpJR8vySFO1xIYldE9CqGZxaBUlSuoz5C9NafXIz9vsLsZVKnd8kh9CiDlZdyEBixFx5Diqg6kk0ACeSr2QQuFRFcqAQCGOYTUfAbDCXiIniiV5U_zkh9qdB9VQBjNgd-89ftm34S0p9cIfKAO7Bi__KyX2g3feaSq0jEWt9qXvumBDhj0mdIBYOLGltkFg7TFiI4yxLGPgjD1zJ_jjb6p1oX8B62uY60w1a-Nj7mVI83ELAndJHXr0go3E4Ja-OSayUl0eKKvQhWHrN9AaviWo8Ibp867azye7zKbA7YdByUyD7pNxRuN3UirFpv7frSjdJV0uOj_JY4aR7v5y9m_1U3vrNNlDe0imNjm_]--></g></svg>